# xmcd
# 
# Track frame offsets:
#     150
#     21647
#     54569
#     183939
#     232767
#     311225
#     328866
# 
# Disc length: 4671
# 
# Revision: 0
# Processed by: cddbd v1.5.2PL0 Copyright (c) Steve Scherf et al.
# Submitted via: BonkEnc v1.0.8
# 
DISCID=5d123d07
DTITLE=Englisch - Grundwortschatz
DYEAR=2010
DGENRE=
TTITLE0=K01neu
TTITLE1=K02neu
TTITLE2=K03neu
TTITLE3=K04neu
TTITLE4=K05neu
TTITLE5=K06neu
TTITLE6=K07neu
EXTD=
EXTT0=
EXTT1=
EXTT2=
EXTT3=
EXTT4=
EXTT5=
EXTT6=
PLAYORDER=
